<svg width="368" height="133" viewBox="0 0 368 133" fill="none" xmlns="http://www.w3.org/2000/svg">
<path fill-rule="evenodd" clip-rule="evenodd" d="M118.973 97.0952H123.586V104.416H118.973V97.0952ZM59 85.3513H147.748L142.431 104.416H132.031V91.556H74.7166V104.416H64.317L59 85.3513ZM83.1613 97.0952H87.7746V104.416H83.1613V97.0952ZM92.1143 97.0952H96.7276V104.416H92.1143V97.0952ZM101.067 97.0952H105.681V104.416H101.067V97.0952ZM110.02 97.0952H114.634V104.416H110.02V97.0952Z" fill="#00B1EE"/>
<path fill-rule="evenodd" clip-rule="evenodd" d="M293.478 76.8957C298.775 76.8957 301.414 75.1146 301.414 71.5718C301.414 68.0291 298.775 66.2675 293.478 66.2675H282.453V76.8957H293.478ZM282.453 50.7851V60.9436H292.109C294.494 60.9436 296.332 60.5129 297.602 59.6517C298.893 58.7905 299.518 57.5378 299.518 55.8937C299.518 54.2104 298.893 52.9381 297.602 52.0769C296.332 51.2157 294.494 50.7851 292.109 50.7851H282.453ZM301.688 63.0966C303.721 63.7621 305.324 64.8778 306.516 66.4436C307.709 68.0095 308.295 69.9472 308.295 72.2569C308.295 75.4473 307.083 77.9135 304.62 79.6556C302.177 81.3976 298.599 82.2588 293.908 82.2588H275.611V45.422H292.852C297.192 45.422 300.535 46.2636 302.88 47.9665C305.246 49.6694 306.419 52.0182 306.419 54.9933C306.419 56.8136 305.989 58.4382 305.148 59.8475C304.307 61.2372 303.154 62.3333 301.688 63.0966ZM250.746 76.4651C253.444 76.4651 255.809 75.9562 257.861 74.9188C259.914 73.8815 261.497 72.4135 262.592 70.4953C263.706 68.5771 264.254 66.3653 264.254 63.8404C264.254 61.3154 263.706 59.1037 262.592 57.1855C261.497 55.2673 259.914 53.7993 257.861 52.762C255.809 51.7246 253.444 51.2157 250.746 51.2157H241.813V76.4651H250.746ZM234.971 45.422H251.059C254.988 45.422 258.467 46.1854 261.517 47.7121C264.566 49.2388 266.932 51.3918 268.613 54.1908C270.294 56.9702 271.134 60.1998 271.134 63.8404C271.134 67.481 270.294 70.7106 268.613 73.49C266.932 76.289 264.566 78.442 261.517 79.9687C258.467 81.4954 254.988 82.2588 251.059 82.2588H234.971V45.422ZM214.934 65.8369C217.925 65.8369 220.173 65.2105 221.717 63.9383C223.262 62.6856 224.024 60.8653 224.024 58.5165C224.024 56.1677 223.262 54.367 221.717 53.0947C220.173 51.842 217.925 51.2157 214.934 51.2157H206.959V65.8369H214.934ZM215.247 45.422C218.433 45.422 221.229 45.9505 223.594 47.0074C225.959 48.0448 227.758 49.5519 229.028 51.5288C230.279 53.4862 230.924 55.8154 230.924 58.5165C230.924 61.198 230.279 63.5076 229.028 65.5041C227.758 67.481 225.959 68.9881 223.594 70.0451C221.229 71.1021 218.433 71.6305 215.247 71.6305H206.959V82.2588H200.117V45.422H215.247ZM180.08 65.8369C183.051 65.8369 185.319 65.2105 186.863 63.9383C188.407 62.6856 189.17 60.8653 189.17 58.5165C189.17 56.1677 188.407 54.367 186.863 53.0947C185.319 51.842 183.051 51.2157 180.08 51.2157H172.085V65.8369H180.08ZM180.393 45.422C183.579 45.422 186.355 45.9505 188.72 47.0074C191.086 48.0448 192.904 49.5519 194.174 51.5288C195.425 53.4862 196.07 55.8154 196.07 58.5165C196.07 61.198 195.425 63.5076 194.174 65.5041C192.904 67.481 191.086 68.9881 188.72 70.0451C186.355 71.1021 183.579 71.6305 180.393 71.6305H172.085V82.2588H165.263V45.422H180.393Z" fill="#149487"/>
<path fill-rule="evenodd" clip-rule="evenodd" d="M269.121 94.1005H266.697V92.9457H272.894V94.1005H270.47V100.266H269.121V94.1005ZM264.469 97.5063L263.1 94.3158L261.732 97.5063H264.469ZM264.918 98.5828H261.282L260.559 100.266H259.152L262.436 92.9457H263.784L267.069 100.266H265.661L264.918 98.5828ZM257.314 95.5489C257.314 95.0792 257.158 94.7269 256.845 94.4724C256.552 94.218 256.102 94.1005 255.496 94.1005H253.913V97.0169H255.496C256.102 97.0169 256.552 96.8995 256.845 96.645C257.158 96.3906 257.314 96.0187 257.314 95.5489ZM257.334 100.266L255.848 98.1326C255.789 98.1326 255.692 98.1326 255.574 98.1326H253.913V100.266H252.564V92.9457H255.574C256.2 92.9457 256.747 93.0631 257.216 93.2589C257.686 93.4742 258.057 93.7678 258.292 94.1592C258.546 94.5507 258.682 95.0205 258.682 95.5489C258.682 96.097 258.546 96.5863 258.272 96.9778C257.998 97.3693 257.627 97.6628 257.119 97.8586L258.8 100.266H257.334ZM249.026 97.5063L247.657 94.3158L246.289 97.5063H249.026ZM249.475 98.5828H245.82L245.116 100.266H243.709L246.993 92.9457H248.342L251.626 100.266H250.218L249.475 98.5828ZM240.346 99.2091C241.402 99.2091 241.93 98.8568 241.93 98.1522C241.93 97.4475 241.402 97.0952 240.346 97.0952H238.157V99.2091H240.346ZM238.157 94.0222V96.0383H240.073C240.562 96.0383 240.913 95.9404 241.167 95.7838C241.422 95.6077 241.558 95.3532 241.558 95.04C241.558 94.6877 241.422 94.4528 241.167 94.2767C240.913 94.1005 240.562 94.0222 240.073 94.0222H238.157ZM241.969 96.4689C242.379 96.5863 242.692 96.8212 242.946 97.1344C243.181 97.428 243.298 97.8194 243.298 98.2892C243.298 98.9155 243.044 99.4049 242.555 99.7572C242.067 100.09 241.363 100.266 240.425 100.266H236.808V92.9457H240.229C241.089 92.9457 241.754 93.1219 242.223 93.4546C242.692 93.7873 242.927 94.2571 242.927 94.8443C242.927 95.2162 242.829 95.5294 242.673 95.823C242.497 96.097 242.262 96.3123 241.969 96.4689ZM230.397 97.5063L229.009 94.3158L227.64 97.5063H230.397ZM230.846 98.5828H227.191L226.467 100.266H225.08L228.364 92.9457H229.693L232.996 100.266H231.569L230.846 98.5828ZM225.236 92.9457L222.812 100.266H221.365L219.567 94.8443L217.729 100.266H216.283L213.859 92.9457H215.266L217.084 98.5045L218.961 92.9457H220.212L222.069 98.5436L223.926 92.9457H225.236ZM211.416 97.5063L210.028 94.3158L208.659 97.5063H211.416ZM211.865 98.5828H208.21L207.486 100.266H206.098L209.383 92.9457H210.712L214.015 100.266H212.588L211.865 98.5828ZM202.912 100.364C202.443 100.364 202.013 100.286 201.622 100.09C201.231 99.9138 200.918 99.6593 200.664 99.307L201.426 98.3871C201.837 98.9351 202.326 99.2287 202.893 99.2287C203.635 99.2287 204.026 98.7785 204.026 97.8782V94.1005H201.426V92.9457H205.375V97.7999C205.375 98.6611 205.18 99.307 204.75 99.7376C204.339 100.149 203.733 100.364 202.912 100.364ZM174.313 88.894H299.264L296.449 104.416H177.128L174.313 88.894Z" fill="#149487"/>
<path fill-rule="evenodd" clip-rule="evenodd" d="M83.0049 64.0752L98.2327 61.7264L102.807 58.7709L102.846 57.2246C102.514 57.0093 102.318 56.6374 102.318 56.2263C102.318 55.7957 102.533 55.4238 102.885 55.2281L102.905 54.0733C102.553 53.8776 102.318 53.4861 102.318 53.0555C102.318 52.6053 102.572 52.2138 102.944 51.9985L102.963 50.922C102.572 50.7263 102.318 50.3348 102.318 49.865C102.318 49.3953 102.592 48.9843 103.002 48.7885L103.022 47.7707C102.611 47.5946 102.318 47.1835 102.318 46.6942C102.318 46.2049 102.631 45.7742 103.061 45.5981L103.081 44.6194C102.631 44.4628 102.318 44.0322 102.318 43.5233C102.318 42.9949 102.651 42.5447 103.12 42.3881L103.139 41.4681C102.651 41.3116 102.318 40.8614 102.318 40.3329C102.318 39.7848 102.69 39.3347 103.178 39.1976L103.374 29L103.569 39.1585C104.195 39.1976 104.684 39.7065 104.684 40.3329C104.684 40.9592 104.214 41.4681 103.608 41.5269L103.628 42.3489C104.214 42.4077 104.684 42.9166 104.684 43.5233C104.684 44.1105 104.234 44.5999 103.667 44.6977L103.687 45.5198C104.254 45.6177 104.684 46.107 104.684 46.6942C104.684 47.2618 104.273 47.7511 103.726 47.849L103.745 48.7102C104.273 48.8277 104.684 49.2974 104.684 49.865C104.684 50.4327 104.312 50.8829 103.784 51.0199L103.804 51.9007C104.312 52.0377 104.684 52.5074 104.684 53.0555C104.684 53.584 104.332 54.0341 103.863 54.1907V55.1107C104.332 55.2673 104.684 55.6979 104.684 56.2263C104.684 56.7352 104.371 57.1659 103.921 57.342L103.941 58.7709L108.554 61.7068L123.997 64.0752L121.847 70.1429L117.898 68.5183H88.8497L84.901 70.1429L83.0049 64.0752Z" fill="#C8081B"/>
<path fill-rule="evenodd" clip-rule="evenodd" d="M72.3708 73.8227H134.377L131.308 82.8851L125.326 80.4189H81.4216L75.4399 82.8851L72.3708 73.8227Z" fill="#FECE27"/>
</svg>